<svg width="44" height="38" viewBox="0 0 44 38" fill="none" xmlns="http://www.w3.org/2000/svg">
<path d="M5.19922 0.185547L4.98438 0.363674V19V37.6363L5.19922 37.8145L5.40547 38H22H38.5945L38.8008 37.8145L39.0156 37.6363V19V0.363674L38.8008 0.185547L38.5945 0H22H5.40547L5.19922 0.185547ZM37.6406 19V36.8125H22H6.35938V19V1.1875H22H37.6406V19Z" fill="#07D962"/>
<path d="M16.4141 4.82419C14.2914 5.29919 12.6156 6.64997 11.8852 8.48318C11.6188 9.14372 11.5242 10.5019 11.6789 11.2218C12.0227 12.7211 13.1742 14.1386 14.6953 14.9254C17.7203 16.484 21.6563 15.6156 23.4609 12.9957C25.0508 10.6875 24.4492 7.64451 22.0688 5.9449C21.3984 5.4699 20.1867 4.95037 19.3617 4.79451C18.5109 4.63123 17.2219 4.64607 16.4141 4.82419ZM19.1555 5.97458C21.3383 6.4199 22.9367 8.14919 22.9711 10.0937C22.9711 10.4426 22.9281 10.9101 22.868 11.1328C22.4641 12.6172 21.0805 13.8863 19.3875 14.339C18.6828 14.5246 17.557 14.5543 16.8438 14.4058C15.0477 14.0347 13.5523 12.7656 13.1055 11.2441C12.9336 10.6726 12.9422 9.6781 13.1141 9.09919C13.5523 7.61482 15.0391 6.33084 16.7234 5.98201C17.3938 5.84099 18.4766 5.84099 19.1555 5.97458Z" fill="#07D962"/>
<path d="M17.4883 7.16211C17.368 7.25859 17.2734 7.40703 17.2734 7.48867C17.2734 7.57031 17.1961 7.65195 17.1102 7.68164C16.818 7.75586 16.2594 8.35703 16.1562 8.69102C15.8469 9.6707 16.5773 10.591 17.7977 10.7543C18.2703 10.8211 18.4766 10.9695 18.4766 11.2441C18.4766 11.452 18.2188 11.6523 17.9438 11.6523C17.7031 11.6523 17.4453 11.4445 17.4453 11.259C17.4453 11.0289 17.2477 10.7691 17.007 10.6801C16.5258 10.5094 16.0703 10.8359 16.0703 11.348C16.0703 11.6969 16.4914 12.3203 16.9039 12.5652C17.1016 12.6914 17.2734 12.8324 17.2734 12.8844C17.2734 12.9289 17.3508 13.0551 17.4539 13.1664C17.5914 13.3148 17.7031 13.3594 17.9523 13.3594C18.2875 13.3594 18.4938 13.2332 18.6227 12.9363C18.657 12.8547 18.8633 12.6691 19.0695 12.5355C19.9891 11.927 20.1094 10.7988 19.3188 10.1012C18.9578 9.78203 18.6656 9.66328 18.1156 9.58906C17.7547 9.54453 17.643 9.5 17.5398 9.33672C17.2734 8.93594 17.7977 8.52773 18.2531 8.78008C18.382 8.8543 18.468 8.99531 18.5109 9.1957C18.6484 9.96758 19.8516 9.85625 19.8516 9.06953C19.8516 8.62422 19.4648 8.03047 19.0266 7.80039C18.8117 7.68906 18.6484 7.54805 18.6484 7.47383C18.6484 7.25859 18.2617 6.97656 17.9609 6.97656C17.7977 6.97656 17.6172 7.04336 17.4883 7.16211Z" fill="#07D962"/>
<path d="M25.6352 7.23633C25.4117 7.36992 25.3258 7.65195 25.4375 7.9043C25.6094 8.29023 25.8242 8.3125 29.3305 8.3125C31.5047 8.3125 32.6391 8.28281 32.8281 8.23086C33.3266 8.075 33.4383 7.40703 33 7.19922C32.9055 7.15469 31.4531 7.125 29.3305 7.125C26.3742 7.125 25.7898 7.13984 25.6352 7.23633Z" fill="#07D962"/>
<path d="M25.6781 12.2016C25.4547 12.3426 25.343 12.6617 25.4375 12.8695C25.618 13.2852 25.6094 13.2852 29.3477 13.2852C33.0859 13.2852 33.0773 13.2852 33.2578 12.8695C33.3523 12.6617 33.2406 12.3426 33.0172 12.2016C32.8023 12.0605 25.893 12.0605 25.6781 12.2016Z" fill="#07D962"/>
<path d="M11.0859 17.241C10.6305 17.4414 10.5875 18.0648 11 18.2578C11.2148 18.3617 32.7852 18.3617 33 18.2578C33.4125 18.0648 33.3695 17.4414 32.9141 17.241C32.5961 17.1 11.4039 17.1 11.0859 17.241Z" fill="#07D962"/>
<path d="M10.9742 22.2805C10.5789 22.5402 10.6391 23.0895 11.0859 23.2824C11.4039 23.4234 32.5961 23.4234 32.9141 23.2824C33.3695 23.082 33.4125 22.4586 33 22.2656C32.7422 22.1469 11.1547 22.1691 10.9742 22.2805Z" fill="#07D962"/>
<path d="M10.9484 27.3348C10.7766 27.4609 10.7164 27.5797 10.7164 27.7578C10.7164 27.9359 10.7766 28.0547 10.9484 28.1809L11.1805 28.3516H22H32.8195L33.0516 28.1809C33.2234 28.0547 33.2836 27.9359 33.2836 27.7578C33.2836 27.5797 33.2234 27.4609 33.0516 27.3348L32.8195 27.1641H22H11.1805L10.9484 27.3348Z" fill="#07D962"/>
<path d="M11.0859 32.2332C10.6305 32.4335 10.5875 33.057 11 33.25C11.2148 33.3539 32.7852 33.3539 33 33.25C33.4125 33.057 33.3695 32.4335 32.9141 32.2332C32.5961 32.0921 11.4039 32.0921 11.0859 32.2332Z" fill="#07D962"/>
</svg>
