<svg width="114" height="72" viewBox="0 0 114 72" fill="none" xmlns="http://www.w3.org/2000/svg">
<g clip-path="url(#clip0_41_19)">
<path d="M77.5625 25.75H38.8125C38.2986 25.75 37.8058 25.5985 37.4425 25.329C37.0791 25.0594 36.875 24.6937 36.875 24.3125C36.875 23.9313 37.0791 23.5656 37.4425 23.296C37.8058 23.0265 38.2986 22.875 38.8125 22.875H71.75C72.2639 22.875 72.7567 22.7235 73.12 22.454C73.4834 22.1844 73.6875 21.8187 73.6875 21.4375C73.6875 21.0563 73.4834 20.6906 73.12 20.421C72.7567 20.1515 72.2639 20 71.75 20H38.8125C37.2709 20 35.7925 20.4544 34.7024 21.2631C33.6124 22.0719 33 23.1688 33 24.3125V47.3125C33 48.4562 33.6124 49.5531 34.7024 50.3619C35.7925 51.1706 37.2709 51.625 38.8125 51.625H77.5625C78.5902 51.625 79.5758 51.3221 80.3025 50.7829C81.0292 50.2438 81.4375 49.5125 81.4375 48.75V28.625C81.4375 27.8625 81.0292 27.1312 80.3025 26.5921C79.5758 26.0529 78.5902 25.75 77.5625 25.75ZM77.5625 48.75H38.8125C38.2986 48.75 37.8058 48.5986 37.4425 48.329C37.0791 48.0594 36.875 47.6937 36.875 47.3125V28.3788C37.4971 28.5424 38.1524 28.6257 38.8125 28.625H77.5625V48.75ZM65.9375 37.9688C65.9375 37.5423 66.1079 37.1254 66.4273 36.7708C66.7466 36.4162 67.2005 36.1398 67.7316 35.9766C68.2626 35.8134 68.847 35.7707 69.4107 35.8539C69.9745 35.9371 70.4923 36.1425 70.8988 36.4441C71.3052 36.7456 71.582 37.1298 71.6942 37.5481C71.8063 37.9664 71.7487 38.3999 71.5288 38.7939C71.3088 39.1879 70.9363 39.5247 70.4584 39.7616C69.9804 39.9985 69.4186 40.125 68.8438 40.125C68.073 40.125 67.3338 39.8978 66.7887 39.4934C66.2437 39.0891 65.9375 38.5406 65.9375 37.9688Z" fill="white"/>
<path d="M14.36 58.64L12.76 58.38V57.14H23.42L23.68 60.5H22.28L21.62 58.52L17.3 58.34V63.72L20.08 63.66L20.4 62.02H21.68V66.86H20.4L20.08 65.14L17.3 65.08V70.72L22.14 70.48L23.3 67.92L24.8 68.34L24.28 72H12.78V70.8L14.36 70.6V58.64ZM35.4855 66.54H27.3455V64.66H35.4855V66.54ZM37.3627 57.14H43.3627V58.38L41.6227 58.64L44.1427 67.66L44.6027 69.88L45.0627 67.66L47.2027 60.34L46.6427 58.64L45.3227 58.38V57.14H51.5827V58.38L49.6627 58.64L52.1627 67.66L52.7027 70.06L53.1227 67.66L55.4027 58.64L53.6027 58.38V57.14H58.4227V58.38L57.1427 58.64L53.3427 72.1H50.7027L47.9427 62.76L45.3027 72.1H42.7027L38.5827 58.66L37.3627 58.38V57.14ZM58.7347 68.88C58.7347 67.6667 59.3414 66.7533 60.5547 66.14C61.7814 65.5267 63.3614 65.2133 65.2947 65.2V64.74C65.2947 64.1933 65.2347 63.7667 65.1147 63.46C65.008 63.1533 64.8014 62.9267 64.4947 62.78C64.2014 62.62 63.768 62.54 63.1947 62.54C62.5414 62.54 61.9547 62.6267 61.4347 62.8C60.9147 62.96 60.3747 63.1733 59.8147 63.44L59.1947 62.16C59.3947 61.9867 59.728 61.78 60.1947 61.54C60.6747 61.3 61.2414 61.0933 61.8947 60.92C62.548 60.7333 63.2214 60.64 63.9147 60.64C64.9414 60.64 65.7414 60.7733 66.3147 61.04C66.9014 61.3067 67.3214 61.7333 67.5747 62.32C67.828 62.9067 67.9547 63.6933 67.9547 64.68V70.8H69.0347V71.92C68.768 71.9867 68.388 72.0533 67.8947 72.12C67.4014 72.1867 66.968 72.22 66.5947 72.22C66.1414 72.22 65.8347 72.1533 65.6747 72.02C65.528 71.8867 65.4547 71.6133 65.4547 71.2V70.66C65.0947 71.06 64.628 71.42 64.0547 71.74C63.4814 72.06 62.8347 72.22 62.1147 72.22C61.5014 72.22 60.9347 72.0933 60.4147 71.84C59.908 71.5733 59.5014 71.1933 59.1947 70.7C58.888 70.1933 58.7347 69.5867 58.7347 68.88ZM63.3947 70.56C63.6747 70.56 63.9947 70.48 64.3547 70.32C64.7147 70.1467 65.028 69.94 65.2947 69.7V66.42C64.0947 66.42 63.1947 66.6267 62.5947 67.04C62.008 67.44 61.7147 67.96 61.7147 68.6C61.7147 69.24 61.8614 69.7267 62.1547 70.06C62.4614 70.3933 62.8747 70.56 63.3947 70.56ZM71.4428 57.38L69.9628 57.12V56.04L73.6628 55.6H73.7028L74.2428 55.98V70.64L75.7028 70.8V72H70.0428V70.8L71.4428 70.62V57.38ZM78.2397 57.38L76.7597 57.12V56.04L80.4597 55.6H80.4997L81.0397 55.98V70.64L82.4997 70.8V72H76.8397V70.8L78.2397 70.62V57.38ZM89.1555 72.2131C88.0334 72.2131 87.0675 71.9858 86.2578 71.5312C85.4529 71.072 84.8326 70.4233 84.397 69.5852C83.9614 68.7424 83.7436 67.7457 83.7436 66.5952C83.7436 65.473 83.9614 64.4882 84.397 63.6406C84.8326 62.7931 85.4458 62.1326 86.2365 61.6591C87.032 61.1856 87.9647 60.9489 89.0348 60.9489C89.7545 60.9489 90.4245 61.0649 91.0447 61.2969C91.6697 61.5241 92.2143 61.8674 92.6783 62.3267C93.147 62.786 93.5116 63.3636 93.772 64.0597C94.0324 64.7509 94.1626 65.5606 94.1626 66.4886V67.3196H84.951V65.4446H91.3146C91.3146 65.009 91.2199 64.6231 91.0305 64.2869C90.8411 63.9508 90.5784 63.688 90.2422 63.4986C89.9107 63.3045 89.5249 63.2074 89.0845 63.2074C88.6252 63.2074 88.218 63.3139 87.8629 63.527C87.5125 63.7353 87.2379 64.017 87.0391 64.3722C86.8402 64.7225 86.7384 65.1132 86.7337 65.544V67.3267C86.7337 67.8665 86.8331 68.3329 87.032 68.7259C87.2356 69.1188 87.522 69.4219 87.8913 69.6349C88.2607 69.848 88.6986 69.9545 89.2053 69.9545C89.5414 69.9545 89.8492 69.9072 90.1286 69.8125C90.4079 69.7178 90.647 69.5758 90.8459 69.3864C91.0447 69.197 91.1963 68.965 91.3004 68.6903L94.0987 68.875C93.9567 69.5473 93.6655 70.1345 93.2251 70.6364C92.7895 71.1335 92.2261 71.5218 91.5348 71.8011C90.8482 72.0758 90.0552 72.2131 89.1555 72.2131ZM101.94 61.0909V63.3636H95.37V61.0909H101.94ZM96.8615 58.4773H99.8871V68.6477C99.8871 68.9271 99.9297 69.1449 100.015 69.3011C100.1 69.4527 100.219 69.5592 100.37 69.6207C100.526 69.6823 100.706 69.7131 100.91 69.7131C101.052 69.7131 101.194 69.7012 101.336 69.6776C101.478 69.6491 101.587 69.6278 101.663 69.6136L102.138 71.8651C101.987 71.9124 101.774 71.9669 101.499 72.0284C101.225 72.0947 100.891 72.1349 100.498 72.1491C99.7687 72.1776 99.1295 72.0805 98.5803 71.858C98.0357 71.6354 97.612 71.2898 97.3089 70.821C97.0059 70.3523 96.8568 69.7604 96.8615 69.0455V58.4773Z" fill="white"/>
</g>
<defs>
<clipPath id="clip0_41_19">
<rect width="114" height="72" fill="white"/>
</clipPath>
</defs>
</svg>
