<svg width="29" height="26" viewBox="0 0 29 26" fill="none" xmlns="http://www.w3.org/2000/svg">
<path d="M25.0231 20.9043C25.2486 21.1073 25.3752 21.3822 25.3752 21.6687C25.3752 21.9552 25.2486 22.2301 25.0231 22.4331C24.8584 22.578 20.9676 26 14.5 26C8.85255 26 4.75328 22.9667 2.41667 20.6036V23.8333C2.41667 24.1207 2.28936 24.3962 2.06275 24.5994C1.83615 24.8025 1.5288 24.9167 1.20833 24.9167C0.887863 24.9167 0.580519 24.8025 0.353913 24.5994C0.127306 24.3962 0 24.1207 0 23.8333V17.3333C0 17.046 0.127306 16.7705 0.353913 16.5673C0.580519 16.3641 0.887863 16.25 1.20833 16.25H8.45833C8.7788 16.25 9.08615 16.3641 9.31275 16.5673C9.53936 16.7705 9.66667 17.046 9.66667 17.3333C9.66667 17.6207 9.53936 17.8962 9.31275 18.0994C9.08615 18.3025 8.7788 18.4167 8.45833 18.4167H3.54042C5.40125 20.4953 9.21354 23.8333 14.5 23.8333C19.9375 23.8333 23.2816 20.9273 23.3148 20.8975C23.5424 20.6954 23.8502 20.5826 24.1705 20.5838C24.4908 20.5851 24.7975 20.7004 25.0231 20.9043ZM27.7917 1.08333C27.4712 1.08333 27.1639 1.19747 26.9372 1.40063C26.7106 1.6038 26.5833 1.87935 26.5833 2.16667V5.39635C24.2467 3.03333 20.1474 0 14.5 0C8.0324 0 4.14156 3.42198 3.97844 3.56688C3.7513 3.76979 3.62338 4.04529 3.62282 4.33277C3.62225 4.62025 3.74908 4.89616 3.97542 5.09979C4.20175 5.30343 4.50904 5.41812 4.82969 5.41862C5.15033 5.41913 5.45808 5.30542 5.68521 5.1025C5.71844 5.07271 9.0625 2.16667 14.5 2.16667C19.7865 2.16667 23.5988 5.50469 25.4596 7.58333H20.5417C20.2212 7.58333 19.9139 7.69747 19.6872 7.90063C19.4606 8.1038 19.3333 8.37935 19.3333 8.66667C19.3333 8.95399 19.4606 9.22954 19.6872 9.4327C19.9139 9.63586 20.2212 9.75 20.5417 9.75H27.7917C28.1121 9.75 28.4195 9.63586 28.6461 9.4327C28.8727 9.22954 29 8.95399 29 8.66667V2.16667C29 1.87935 28.8727 1.6038 28.6461 1.40063C28.4195 1.19747 28.1121 1.08333 27.7917 1.08333Z" fill="#07D962"/>
</svg>
